<?xml version="1.0"?>
<svg width='390' height='342' xmlns='http://www.w3.org/2000/svg'>
<text x="252" y="30.0" text-anchor="end" dominant-baseline="middle" font-size="12" opacity="0.5">great_pillar</text> 
<text x="87" y="66.0" text-anchor="end" dominant-baseline="middle" font-size="12" opacity="0.5">thanes_house</text> 
<text x="222" y="87.0" text-anchor="end" dominant-baseline="middle" font-size="12" opacity="0.5">noble_quarter</text> 
<text x="117" y="111.0" text-anchor="end" dominant-baseline="middle" font-size="12" opacity="0.5">docks</text> 
<text x="87" y="144.0" text-anchor="end" dominant-baseline="middle" font-size="12" opacity="0.5">peak</text> 
<text x="102" y="171.0" text-anchor="end" dominant-baseline="middle" font-size="12" opacity="0.5">jethans_place</text> 
<text x="87" y="201.0" text-anchor="end" dominant-baseline="middle" font-size="12" opacity="0.5">mile</text> 
<text x="117" y="231.0" text-anchor="end" dominant-baseline="middle" font-size="12" opacity="0.5">wildflowers_house</text> 
<text x="87" y="255.0" text-anchor="end" dominant-baseline="middle" font-size="12" opacity="0.5">travel-quarter</text> 
<text x="87" y="282.0" text-anchor="end" dominant-baseline="middle" font-size="12" opacity="0.5">pans-house</text> 
<text x="87" y="306.0" text-anchor="end" dominant-baseline="middle" font-size="12" opacity="0.5">labyrinth</text> 
<text x="282" y="327.0" text-anchor="end" dominant-baseline="middle" font-size="12" opacity="0.5">moon_pool</text> 
<path id="thread_chapton" fill="none" stroke="black" stroke_width="3" d="M 90 186 100 186 105 186 115 186 120 186 130 186 135 186 145 186 150 192 160 192 165 192 175 192 180 138 190 138 195 138 205 138 210 138 220 138 225 102 235 102 240 102 250 102 255 102 265 102 270 102 280 102 285 12 295 12"/>
<text x="87" y="186" text-anchor="end" dominant-baseline="middle" font-size="6">chapton</text>
<text x="298" y="12" text-anchor="start" dominant-baseline="middle" font-size="6">chapton</text>
<path id="thread_vinnie" fill="none" stroke="black" stroke_width="3" d="M 90 252 100 252 105 282 115 282 120 282 130 282 135 306 145 306 150 306 160 306 165 306 175 306 180 306 190 306 195 306 205 306 210 306 220 306 225 306 235 306 240 306 250 306 255 306 265 306 270 306 280 306 285 324 295 324"/>
<text x="87" y="252" text-anchor="end" dominant-baseline="middle" font-size="6">vinnie</text>
<text x="298" y="324" text-anchor="start" dominant-baseline="middle" font-size="6">vinnie</text>
<path id="thread_wildflower" fill="none" stroke="black" stroke_width="3" d="M 90 258 100 258 105 246 115 246 120 228 130 228 135 198 145 198 150 204 160 204 165 210 175 210 180 204 190 204 195 204 205 204 210 204 220 204 225 204 235 204 240 204 250 204 255 204 265 204 270 204 280 204 285 204 295 204"/>
<text x="87" y="258" text-anchor="end" dominant-baseline="middle" font-size="6">wildflower</text>
<text x="298" y="204" text-anchor="start" dominant-baseline="middle" font-size="6">wildflower</text>
<path id="thread_jethan" fill="none" stroke="black" stroke_width="3" d="M 90 246 100 246 105 168 115 168 120 108 130 108 135 108 145 108 150 108 160 108 165 108 175 108 180 150 190 150 195 150 205 150 210 150 220 150 225 84 235 84 240 60 250 60 255 12 265 12 270 12 280 12 285 24 295 24"/>
<text x="87" y="246" text-anchor="end" dominant-baseline="middle" font-size="6">jethan</text>
<text x="298" y="24" text-anchor="start" dominant-baseline="middle" font-size="6">jethan</text>
<path id="thread_pan" fill="none" stroke="black" stroke_width="3" d="M 90 276 100 276 105 276 115 276 120 276 130 276 135 276 145 276 150 276 160 276 165 276 175 276 180 276 190 276 195 276 205 276 210 276 220 276 225 276 235 276 240 276 250 276 255 276 265 276 270 18 280 18 285 36 295 36"/>
<text x="87" y="276" text-anchor="end" dominant-baseline="middle" font-size="6">pan</text>
<text x="298" y="36" text-anchor="start" dominant-baseline="middle" font-size="6">pan</text>
<path id="thread_minotaur" fill="none" stroke="black" stroke_width="3" d="M 90 300 100 300 105 300 115 300 120 300 130 300 135 300 145 300 150 300 160 300 165 300 175 300 180 300 190 300 195 300 205 300 210 300 220 300 225 300 235 300 240 300 250 300 255 300 265 300 270 300 280 300 285 300 295 300"/>
<text x="87" y="300" text-anchor="end" dominant-baseline="middle" font-size="6">minotaur</text>
<text x="298" y="300" text-anchor="start" dominant-baseline="middle" font-size="6">minotaur</text>
<path id="thread_argus" fill="none" stroke="black" stroke_width="3" d="M 90 132 100 132 105 132 115 132 120 132 130 132 135 132 145 132 150 132 160 132 165 132 175 132 180 132 190 132 195 132 205 132 210 132 220 132 225 132 235 132 240 132 250 132 255 132 265 132 270 132 280 132 285 132 295 132"/>
<text x="87" y="132" text-anchor="end" dominant-baseline="middle" font-size="6">argus</text>
<text x="298" y="132" text-anchor="start" dominant-baseline="middle" font-size="6">argus</text>
<path id="thread_jerome" fill="none" stroke="black" stroke_width="3" d="M 90 138 100 138 105 138 115 138 120 138 130 138 135 138 145 138 150 138 160 138 165 138 175 138 180 144 190 144 195 144 205 144 210 144 220 144 225 138 235 138 240 138 250 138 255 138 265 138 270 138 280 138 285 138 295 138"/>
<text x="87" y="138" text-anchor="end" dominant-baseline="middle" font-size="6">jerome</text>
<text x="298" y="138" text-anchor="start" dominant-baseline="middle" font-size="6">jerome</text>
<path id="thread_thane_the_elder" fill="none" stroke="black" stroke_width="3" d="M 90 60 100 60 105 60 115 60 120 60 130 60 135 60 145 60 150 60 160 60 165 60 175 60 180 60 190 60 195 60 205 60 210 60 220 60 225 60 235 60 240 66 250 66 255 18 265 18 270 24 280 24 285 42 295 42"/>
<text x="87" y="60" text-anchor="end" dominant-baseline="middle" font-size="6">thane_the_elder</text>
<text x="298" y="42" text-anchor="start" dominant-baseline="middle" font-size="6">thane_the_elder</text>
<path id="thread_delph" fill="none" stroke="black" stroke_width="3" d="M 120 102 130 102 135 102 145 102 150 102 160 102 165 102 175 102 180 102 190 102 195 102 205 102 210 102 220 102 225 108 235 108 240 108 250 108 255 108 265 108 270 108 280 108 285 18 295 18"/>
<text x="117" y="102" text-anchor="end" dominant-baseline="middle" font-size="6">delph</text>
<text x="298" y="18" text-anchor="start" dominant-baseline="middle" font-size="6">delph</text>
<path id="thread_lyssa_thane" fill="none" stroke="black" stroke_width="3" d="M 120 114 130 114 135 114 145 114 150 114 160 114 165 114 175 114 180 108 190 108 195 108 205 108 210 108 220 108 225 114 235 114 240 114 250 114 255 114 265 114 270 114 280 114 285 30 295 30"/>
<text x="117" y="114" text-anchor="end" dominant-baseline="middle" font-size="6">lyssa_thane</text>
<text x="298" y="30" text-anchor="start" dominant-baseline="middle" font-size="6">lyssa_thane</text>
<path id="thread_katraktes" fill="none" stroke="black" stroke_width="3" d="M 135 192 145 192 150 198 160 198 165 204 175 204 180 198 190 198 195 198 205 198 210 198 220 198 225 198 235 198 240 198 250 198 255 198 265 198 270 198 280 198 285 198 295 198"/>
<text x="132" y="192" text-anchor="end" dominant-baseline="middle" font-size="6">katraktes</text>
<text x="298" y="198" text-anchor="start" dominant-baseline="middle" font-size="6">katraktes</text>
<path id="thread_aristechon" fill="none" stroke="black" stroke_width="3" d="M 150 186 160 186 165 186 175 186 180 186 190 186 195 186 205 186 210 186 220 186 225 186 235 186 240 186 250 186 255 186 265 186 270 186 280 186 285 186 295 186"/>
<text x="147" y="186" text-anchor="end" dominant-baseline="middle" font-size="6">aristechon</text>
<text x="298" y="186" text-anchor="start" dominant-baseline="middle" font-size="6">aristechon</text>
<path id="thread_cordwynn_zandt" fill="none" stroke="black" stroke_width="3" d="M 165 198 175 198 180 192 190 192 195 192 205 192 210 192 220 192 225 192 235 192 240 192 250 192 255 192 265 192 270 192 280 192 285 192 295 192"/>
<text x="162" y="198" text-anchor="end" dominant-baseline="middle" font-size="6">cordwynn_zandt</text>
<text x="298" y="192" text-anchor="start" dominant-baseline="middle" font-size="6">cordwynn_zandt</text>
</svg>
