<?xml version="1.0"?>
<svg width='390' height='342'>
<path id="thread_vinnie" fill="none" stroke="black" stroke_width="3" d="M 90 174 100 174 105 60 115 60 120 60 130 60 135 18 145 18 150 18 160 18 165 18 175 18 180 18 190 18 195 18 205 18 210 18 220 18 225 18 235 18 240 18 250 18 255 18 265 18 270 18 280 18 285 36 295 36"/>
<text x="87" y="174" text-anchor="end" dominant-baseline="middle" font-size="6">vinnie</text>
<text x="298" y="36" text-anchor="start" dominant-baseline="middle" font-size="6">vinnie</text>
<path id="thread_wildflower" fill="none" stroke="black" stroke_width="3" d="M 90 168 100 168 105 168 115 168 120 216 130 216 135 300 145 300 150 300 160 300 165 300 175 300 180 300 190 300 195 300 205 300 210 300 220 300 225 300 235 300 240 300 250 300 255 300 265 300 270 300 280 300 285 300 295 300"/>
<text x="87" y="168" text-anchor="end" dominant-baseline="middle" font-size="6">wildflower</text>
<text x="298" y="300" text-anchor="start" dominant-baseline="middle" font-size="6">wildflower</text>
<path id="thread_jethan" fill="none" stroke="black" stroke_width="3" d="M 90 180 100 180 105 198 115 198 120 234 130 234 135 234 145 234 150 234 160 234 165 234 175 234 180 264 190 264 195 264 205 264 210 264 220 264 225 102 235 102 240 84 250 84 255 126 265 126 270 132 280 132 285 132 295 132"/>
<text x="87" y="180" text-anchor="end" dominant-baseline="middle" font-size="6">jethan</text>
<text x="298" y="132" text-anchor="start" dominant-baseline="middle" font-size="6">jethan</text>
<path id="thread_pan" fill="none" stroke="black" stroke_width="3" d="M 90 54 100 54 105 54 115 54 120 54 130 54 135 54 145 54 150 54 160 54 165 54 175 54 180 54 190 54 195 54 205 54 210 54 220 54 225 54 235 54 240 54 250 54 255 54 265 54 270 120 280 120 285 120 295 120"/>
<text x="87" y="54" text-anchor="end" dominant-baseline="middle" font-size="6">pan</text>
<text x="298" y="120" text-anchor="start" dominant-baseline="middle" font-size="6">pan</text>
<path id="thread_delph" fill="none" stroke="black" stroke_width="3" d="M 90 240 100 240 105 240 115 240 120 246 130 246 135 246 145 246 150 246 160 246 165 246 175 246 180 240 190 240 195 240 205 240 210 240 220 240 225 246 235 246 240 246 250 246 255 246 265 246 270 246 280 246 285 150 295 150"/>
<text x="87" y="240" text-anchor="end" dominant-baseline="middle" font-size="6">delph</text>
<text x="298" y="150" text-anchor="start" dominant-baseline="middle" font-size="6">delph</text>
<path id="thread_lyssa_thane" fill="none" stroke="black" stroke_width="3" d="M 90 234 100 234 105 234 115 234 120 240 130 240 135 240 145 240 150 240 160 240 165 240 175 240 180 234 190 234 195 234 205 234 210 234 220 234 225 234 235 234 240 234 250 234 255 234 265 234 270 234 280 234 285 138 295 138"/>
<text x="87" y="234" text-anchor="end" dominant-baseline="middle" font-size="6">lyssa_thane</text>
<text x="298" y="138" text-anchor="start" dominant-baseline="middle" font-size="6">lyssa_thane</text>
<path id="thread_minotaur" fill="none" stroke="black" stroke_width="3" d="M 90 12 100 12 105 12 115 12 120 12 130 12 135 12 145 12 150 12 160 12 165 12 175 12 180 12 190 12 195 12 205 12 210 12 220 12 225 12 235 12 240 12 250 12 255 12 265 12 270 12 280 12 285 12 295 12"/>
<text x="87" y="12" text-anchor="end" dominant-baseline="middle" font-size="6">minotaur</text>
<text x="298" y="12" text-anchor="start" dominant-baseline="middle" font-size="6">minotaur</text>
<path id="thread_chapton" fill="none" stroke="black" stroke_width="3" d="M 90 300 100 300 105 300 115 300 120 300 130 300 135 306 145 306 150 306 160 306 165 306 175 306 180 270 190 270 195 270 205 270 210 270 220 270 225 240 235 240 240 240 250 240 255 240 265 240 270 240 280 240 285 144 295 144"/>
<text x="87" y="300" text-anchor="end" dominant-baseline="middle" font-size="6">chapton</text>
<text x="298" y="144" text-anchor="start" dominant-baseline="middle" font-size="6">chapton</text>
<path id="thread_katraktes" fill="none" stroke="black" stroke_width="3" d="M 90 306 100 306 105 306 115 306 120 306 130 306 135 312 145 312 150 312 160 312 165 312 175 312 180 306 190 306 195 306 205 306 210 306 220 306 225 306 235 306 240 306 250 306 255 306 265 306 270 306 280 306 285 306 295 306"/>
<text x="87" y="306" text-anchor="end" dominant-baseline="middle" font-size="6">katraktes</text>
<text x="298" y="306" text-anchor="start" dominant-baseline="middle" font-size="6">katraktes</text>
<path id="thread_aristechon" fill="none" stroke="black" stroke_width="3" d="M 90 312 100 312 105 312 115 312 120 312 130 312 135 318 145 318 150 318 160 318 165 318 175 318 180 312 190 312 195 312 205 312 210 312 220 312 225 312 235 312 240 312 250 312 255 312 265 312 270 312 280 312 285 312 295 312"/>
<text x="87" y="312" text-anchor="end" dominant-baseline="middle" font-size="6">aristechon</text>
<text x="298" y="312" text-anchor="start" dominant-baseline="middle" font-size="6">aristechon</text>
<path id="thread_cordwynn_zandt" fill="none" stroke="black" stroke_width="3" d="M 90 318 100 318 105 318 115 318 120 318 130 318 135 324 145 324 150 324 160 324 165 324 175 324 180 318 190 318 195 318 205 318 210 318 220 318 225 318 235 318 240 318 250 318 255 318 265 318 270 318 280 318 285 318 295 318"/>
<text x="87" y="318" text-anchor="end" dominant-baseline="middle" font-size="6">cordwynn_zandt</text>
<text x="298" y="318" text-anchor="start" dominant-baseline="middle" font-size="6">cordwynn_zandt</text>
<path id="thread_argus" fill="none" stroke="black" stroke_width="3" d="M 90 270 100 270 105 270 115 270 120 270 130 270 135 270 145 270 150 270 160 270 165 270 175 270 180 282 190 282 195 282 205 282 210 282 220 282 225 270 235 270 240 270 250 270 255 270 265 270 270 270 280 270 285 270 295 270"/>
<text x="87" y="270" text-anchor="end" dominant-baseline="middle" font-size="6">argus</text>
<text x="298" y="270" text-anchor="start" dominant-baseline="middle" font-size="6">argus</text>
<path id="thread_jerome" fill="none" stroke="black" stroke_width="3" d="M 90 264 100 264 105 264 115 264 120 264 130 264 135 264 145 264 150 264 160 264 165 264 175 264 180 276 190 276 195 276 205 276 210 276 220 276 225 264 235 264 240 264 250 264 255 264 265 264 270 264 280 264 285 264 295 264"/>
<text x="87" y="264" text-anchor="end" dominant-baseline="middle" font-size="6">jerome</text>
<text x="298" y="264" text-anchor="start" dominant-baseline="middle" font-size="6">jerome</text>
<path id="thread_thane_the_elder" fill="none" stroke="black" stroke_width="3" d="M 90 78 100 78 105 78 115 78 120 78 130 78 135 78 145 78 150 78 160 78 165 78 175 78 180 78 190 78 195 78 205 78 210 78 220 78 225 78 235 78 240 78 250 78 255 120 265 120 270 126 280 126 285 126 295 126"/>
<text x="87" y="78" text-anchor="end" dominant-baseline="middle" font-size="6">thane_the_elder</text>
<text x="298" y="126" text-anchor="start" dominant-baseline="middle" font-size="6">thane_the_elder</text>
</svg>
