<?xml version="1.0"?>
<svg width='390' height='342' xmlns='http://www.w3.org/2000/svg'>
<text x="252" y="30.0" text-anchor="end" dominant-baseline="middle" font-size="12" opacity="0.5">great_pillar</text> 
<text x="87" y="66.0" text-anchor="end" dominant-baseline="middle" font-size="12" opacity="0.5">thanes_house</text> 
<text x="222" y="87.0" text-anchor="end" dominant-baseline="middle" font-size="12" opacity="0.5">noble_quarter</text> 
<text x="117" y="111.0" text-anchor="end" dominant-baseline="middle" font-size="12" opacity="0.5">docks</text> 
<text x="87" y="144.0" text-anchor="end" dominant-baseline="middle" font-size="12" opacity="0.5">peak</text> 
<text x="102" y="171.0" text-anchor="end" dominant-baseline="middle" font-size="12" opacity="0.5">jethans_place</text> 
<text x="87" y="201.0" text-anchor="end" dominant-baseline="middle" font-size="12" opacity="0.5">mile</text> 
<text x="117" y="231.0" text-anchor="end" dominant-baseline="middle" font-size="12" opacity="0.5">wildflowers_house</text> 
<text x="87" y="255.0" text-anchor="end" dominant-baseline="middle" font-size="12" opacity="0.5">travel-quarter</text> 
<text x="87" y="282.0" text-anchor="end" dominant-baseline="middle" font-size="12" opacity="0.5">pans-house</text> 
<text x="87" y="306.0" text-anchor="end" dominant-baseline="middle" font-size="12" opacity="0.5">labyrinth</text> 
<text x="282" y="327.0" text-anchor="end" dominant-baseline="middle" font-size="12" opacity="0.5">moon_pool</text> 
<text x="252.5" y="102.0" transform="rotate(0.0 252.5 102.0)" text-anchor="middle" dominant-baseline="middle" font-size="6">chapton</text>
<path id="thread_chapton_0" fill="none" stroke="black" stroke_width="3" d="M 90 186 145 186 150 192 175 192 180 138 220 138 225 102 231.5 102.0"/>
<path id="thread_chapton_1" fill="none" stroke="black" stroke_width="3" d="M 273.5 102.0 280 102 285 12 295 12"/>
<text x="87" y="186" text-anchor="end" dominant-baseline="middle" font-size="6">chapton</text>
<text x="298" y="12" text-anchor="start" dominant-baseline="middle" font-size="6">chapton</text>
<text x="207.5" y="306.0" transform="rotate(0.0 207.5 306.0)" text-anchor="middle" dominant-baseline="middle" font-size="6">vinnie</text>
<path id="thread_vinnie_0" fill="none" stroke="black" stroke_width="3" d="M 90 252 100 252 105 282 130 282 135 306 189.5 306.0"/>
<path id="thread_vinnie_1" fill="none" stroke="black" stroke_width="3" d="M 225.5 306.0 280 306 285 324 295 324"/>
<text x="87" y="252" text-anchor="end" dominant-baseline="middle" font-size="6">vinnie</text>
<text x="298" y="324" text-anchor="start" dominant-baseline="middle" font-size="6">vinnie</text>
<text x="237.5" y="204.0" transform="rotate(0.0 237.5 204.0)" text-anchor="middle" dominant-baseline="middle" font-size="6">wildflower</text>
<path id="thread_wildflower_0" fill="none" stroke="black" stroke_width="3" d="M 90 258 100 258 105 246 115 246 120 228 130 228 135 198 145 198 150 204 160 204 165 210 175 210 180 204 207.5 204.0"/>
<path id="thread_wildflower_1" fill="none" stroke="black" stroke_width="3" d="M 267.5 204.0 295 204"/>
<text x="87" y="258" text-anchor="end" dominant-baseline="middle" font-size="6">wildflower</text>
<text x="298" y="204" text-anchor="start" dominant-baseline="middle" font-size="6">wildflower</text>
<text x="147.5" y="108.0" transform="rotate(0.0 147.5 108.0)" text-anchor="middle" dominant-baseline="middle" font-size="6">jethan</text>
<text x="252.5" y="36.0" transform="rotate(-84.05313694602651 252.5 36.0)" text-anchor="middle" dominant-baseline="middle" font-size="6">jethan</text>
<path id="thread_jethan_0" fill="none" stroke="black" stroke_width="3" d="M 90 246 100 246 105 168 115 168 120 108 129.5 108.0"/>
<path id="thread_jethan_1" fill="none" stroke="black" stroke_width="3" d="M 165.5 108.0 175 108 180 150 220 150 225 84 235 84 240 60 250 60 250.63509048332978 53.903131360033996"/>
<path id="thread_jethan_2" fill="none" stroke="black" stroke_width="3" d="M 254.3649095166702 18.096868639966 255 12 280 12 285 24 295 24"/>
<text x="87" y="246" text-anchor="end" dominant-baseline="middle" font-size="6">jethan</text>
<text x="298" y="24" text-anchor="start" dominant-baseline="middle" font-size="6">jethan</text>
<text x="267.5" y="147.0" transform="rotate(-88.88975565677947 267.5 147.0)" text-anchor="middle" dominant-baseline="middle" font-size="6">pan</text>
<path id="thread_pan_0" fill="none" stroke="black" stroke_width="3" d="M 90 276 265 276 267.3256141400549 155.99831037316736"/>
<path id="thread_pan_1" fill="none" stroke="black" stroke_width="3" d="M 267.6743858599451 138.00168962683264 270 18 280 18 285 36 295 36"/>
<text x="87" y="276" text-anchor="end" dominant-baseline="middle" font-size="6">pan</text>
<text x="298" y="36" text-anchor="start" dominant-baseline="middle" font-size="6">pan</text>
<text x="192.5" y="300.0" transform="rotate(0.0 192.5 300.0)" text-anchor="middle" dominant-baseline="middle" font-size="6">minotaur</text>
<path id="thread_minotaur_0" fill="none" stroke="black" stroke_width="3" d="M 90 300 168.5 300.0"/>
<path id="thread_minotaur_1" fill="none" stroke="black" stroke_width="3" d="M 216.5 300.0 295 300"/>
<text x="87" y="300" text-anchor="end" dominant-baseline="middle" font-size="6">minotaur</text>
<text x="298" y="300" text-anchor="start" dominant-baseline="middle" font-size="6">minotaur</text>
<text x="192.5" y="132.0" transform="rotate(0.0 192.5 132.0)" text-anchor="middle" dominant-baseline="middle" font-size="6">argus</text>
<path id="thread_argus_0" fill="none" stroke="black" stroke_width="3" d="M 90 132 177.5 132.0"/>
<path id="thread_argus_1" fill="none" stroke="black" stroke_width="3" d="M 207.5 132.0 295 132"/>
<text x="87" y="132" text-anchor="end" dominant-baseline="middle" font-size="6">argus</text>
<text x="298" y="132" text-anchor="start" dominant-baseline="middle" font-size="6">argus</text>
<text x="260.0" y="138.0" transform="rotate(0.0 260.0 138.0)" text-anchor="middle" dominant-baseline="middle" font-size="6">jerome</text>
<path id="thread_jerome_0" fill="none" stroke="black" stroke_width="3" d="M 90 138 175 138 180 144 220 144 225 138 242.0 138.0"/>
<path id="thread_jerome_1" fill="none" stroke="black" stroke_width="3" d="M 278.0 138.0 295 138"/>
<text x="87" y="138" text-anchor="end" dominant-baseline="middle" font-size="6">jerome</text>
<text x="298" y="138" text-anchor="start" dominant-baseline="middle" font-size="6">jerome</text>
<path id="thread_thane_the_elder_0" fill="none" stroke="black" stroke_width="3" d="M 90 60 235 60 240 66 250 66 255 18 265 18 270 24 280 24 285 42 295 42"/>
<text x="87" y="60" text-anchor="end" dominant-baseline="middle" font-size="6">thane_the_elder</text>
<text x="298" y="42" text-anchor="start" dominant-baseline="middle" font-size="6">thane_the_elder</text>
<text x="282.5" y="63.0" transform="rotate(-86.82016988013577 282.5 63.0)" text-anchor="middle" dominant-baseline="middle" font-size="6">delph</text>
<path id="thread_delph_0" fill="none" stroke="black" stroke_width="3" d="M 120 102 220 102 225 108 280 108 281.6679497056621 77.97690529808119"/>
<path id="thread_delph_1" fill="none" stroke="black" stroke_width="3" d="M 283.3320502943378 48.02309470191881 285 18 295 18"/>
<text x="117" y="102" text-anchor="end" dominant-baseline="middle" font-size="6">delph</text>
<text x="298" y="18" text-anchor="start" dominant-baseline="middle" font-size="6">delph</text>
<text x="282.5" y="72.0" transform="rotate(-86.59355624500529 282.5 72.0)" text-anchor="middle" dominant-baseline="middle" font-size="6">lyssa_thane</text>
<path id="thread_lyssa_thane_0" fill="none" stroke="black" stroke_width="3" d="M 120 114 175 114 180 108 220 108 225 114 280 114 280.5391848805209 104.94169400724896"/>
<path id="thread_lyssa_thane_1" fill="none" stroke="black" stroke_width="3" d="M 284.4608151194791 39.05830599275104 285 30 295 30"/>
<text x="117" y="114" text-anchor="end" dominant-baseline="middle" font-size="6">lyssa_thane</text>
<text x="298" y="30" text-anchor="start" dominant-baseline="middle" font-size="6">lyssa_thane</text>
<path id="thread_katraktes_0" fill="none" stroke="black" stroke_width="3" d="M 135 192 145 192 150 198 160 198 165 204 175 204 180 198 295 198"/>
<text x="132" y="192" text-anchor="end" dominant-baseline="middle" font-size="6">katraktes</text>
<text x="298" y="198" text-anchor="start" dominant-baseline="middle" font-size="6">katraktes</text>
<path id="thread_aristechon_0" fill="none" stroke="black" stroke_width="3" d="M 150 186 295 186"/>
<text x="147" y="186" text-anchor="end" dominant-baseline="middle" font-size="6">aristechon</text>
<text x="298" y="186" text-anchor="start" dominant-baseline="middle" font-size="6">aristechon</text>
<path id="thread_cordwynn_zandt_0" fill="none" stroke="black" stroke_width="3" d="M 165 198 175 198 180 192 295 192"/>
<text x="162" y="198" text-anchor="end" dominant-baseline="middle" font-size="6">cordwynn_zandt</text>
<text x="298" y="192" text-anchor="start" dominant-baseline="middle" font-size="6">cordwynn_zandt</text>
</svg>
