<?xml version="1.0"?>
<svg width='390' height='342'>
<path id="thread_vinnie" fill="none" stroke="black" stroke_width="3" d="M 90 126 100 126 105 36 115 36 120 36 130 36 135 18 145 18 150 18 160 18 165 18 175 18 180 18 190 18 195 18 205 18 210 18 220 18 225 18 235 18 240 18 250 18 255 18 265 18 270 18 280 18 285 108 295 108"/>
<text x="87" y="126" text-anchor="end" dominant-baseline="middle" font-size="6">vinnie</text>
<text x="298" y="108" text-anchor="start" dominant-baseline="middle" font-size="6">vinnie</text>
<path id="thread_wildflower" fill="none" stroke="black" stroke_width="3" d="M 90 132 100 132 105 126 115 126 120 90 130 90 135 300 145 300 150 300 160 300 165 300 175 300 180 300 190 300 195 300 205 300 210 300 220 300 225 300 235 300 240 300 250 300 255 300 265 300 270 300 280 300 285 300 295 300"/>
<text x="87" y="132" text-anchor="end" dominant-baseline="middle" font-size="6">wildflower</text>
<text x="298" y="300" text-anchor="start" dominant-baseline="middle" font-size="6">wildflower</text>
<path id="thread_jethan" fill="none" stroke="black" stroke_width="3" d="M 90 138 100 138 105 204 115 204 120 72 130 72 135 72 145 72 150 72 160 72 165 72 175 72 180 270 190 270 195 270 205 270 210 270 220 270 225 222 235 222 240 240 250 240 255 156 265 156 270 162 280 162 285 180 295 180"/>
<text x="87" y="138" text-anchor="end" dominant-baseline="middle" font-size="6">jethan</text>
<text x="298" y="180" text-anchor="start" dominant-baseline="middle" font-size="6">jethan</text>
<path id="thread_pan" fill="none" stroke="black" stroke_width="3" d="M 90 36 100 36 105 42 115 42 120 42 130 42 135 36 145 36 150 36 160 36 165 36 175 36 180 36 190 36 195 36 205 36 210 36 220 36 225 36 235 36 240 36 250 36 255 36 265 36 270 156 280 156 285 174 295 174"/>
<text x="87" y="36" text-anchor="end" dominant-baseline="middle" font-size="6">pan</text>
<text x="298" y="174" text-anchor="start" dominant-baseline="middle" font-size="6">pan</text>
<path id="thread_delph" fill="none" stroke="black" stroke_width="3" d="M 90 66 100 66 105 66 115 66 120 66 130 66 135 66 145 66 150 66 160 66 165 66 175 66 180 66 190 66 195 66 205 66 210 66 220 66 225 66 235 66 240 66 250 66 255 66 265 66 270 66 280 66 285 162 295 162"/>
<text x="87" y="66" text-anchor="end" dominant-baseline="middle" font-size="6">delph</text>
<text x="298" y="162" text-anchor="start" dominant-baseline="middle" font-size="6">delph</text>
<path id="thread_lyssa_thane" fill="none" stroke="black" stroke_width="3" d="M 90 60 100 60 105 60 115 60 120 60 130 60 135 60 145 60 150 60 160 60 165 60 175 60 180 60 190 60 195 60 205 60 210 60 220 60 225 60 235 60 240 60 250 60 255 60 265 60 270 60 280 60 285 156 295 156"/>
<text x="87" y="60" text-anchor="end" dominant-baseline="middle" font-size="6">lyssa_thane</text>
<text x="298" y="156" text-anchor="start" dominant-baseline="middle" font-size="6">lyssa_thane</text>
<path id="thread_minotaur" fill="none" stroke="black" stroke_width="3" d="M 90 12 100 12 105 12 115 12 120 12 130 12 135 12 145 12 150 12 160 12 165 12 175 12 180 12 190 12 195 12 205 12 210 12 220 12 225 12 235 12 240 12 250 12 255 12 265 12 270 12 280 12 285 12 295 12"/>
<text x="87" y="12" text-anchor="end" dominant-baseline="middle" font-size="6">minotaur</text>
<text x="298" y="12" text-anchor="start" dominant-baseline="middle" font-size="6">minotaur</text>
<path id="thread_chapton" fill="none" stroke="black" stroke_width="3" d="M 90 300 100 300 105 300 115 300 120 300 130 300 135 306 145 306 150 306 160 306 165 306 175 306 180 264 190 264 195 264 205 264 210 264 220 264 225 72 235 72 240 72 250 72 255 72 265 72 270 72 280 72 285 168 295 168"/>
<text x="87" y="300" text-anchor="end" dominant-baseline="middle" font-size="6">chapton</text>
<text x="298" y="168" text-anchor="start" dominant-baseline="middle" font-size="6">chapton</text>
<path id="thread_katraktes" fill="none" stroke="black" stroke_width="3" d="M 90 306 100 306 105 306 115 306 120 306 130 306 135 312 145 312 150 312 160 312 165 312 175 312 180 306 190 306 195 306 205 306 210 306 220 306 225 306 235 306 240 306 250 306 255 306 265 306 270 306 280 306 285 306 295 306"/>
<text x="87" y="306" text-anchor="end" dominant-baseline="middle" font-size="6">katraktes</text>
<text x="298" y="306" text-anchor="start" dominant-baseline="middle" font-size="6">katraktes</text>
<path id="thread_aristechon" fill="none" stroke="black" stroke_width="3" d="M 90 312 100 312 105 312 115 312 120 312 130 312 135 318 145 318 150 318 160 318 165 318 175 318 180 312 190 312 195 312 205 312 210 312 220 312 225 312 235 312 240 312 250 312 255 312 265 312 270 312 280 312 285 312 295 312"/>
<text x="87" y="312" text-anchor="end" dominant-baseline="middle" font-size="6">aristechon</text>
<text x="298" y="312" text-anchor="start" dominant-baseline="middle" font-size="6">aristechon</text>
<path id="thread_cordwynn_zandt" fill="none" stroke="black" stroke_width="3" d="M 90 318 100 318 105 318 115 318 120 318 130 318 135 324 145 324 150 324 160 324 165 324 175 324 180 318 190 318 195 318 205 318 210 318 220 318 225 318 235 318 240 318 250 318 255 318 265 318 270 318 280 318 285 318 295 318"/>
<text x="87" y="318" text-anchor="end" dominant-baseline="middle" font-size="6">cordwynn_zandt</text>
<text x="298" y="318" text-anchor="start" dominant-baseline="middle" font-size="6">cordwynn_zandt</text>
<path id="thread_argus" fill="none" stroke="black" stroke_width="3" d="M 90 270 100 270 105 270 115 270 120 270 130 270 135 270 145 270 150 270 160 270 165 270 175 270 180 282 190 282 195 282 205 282 210 282 220 282 225 270 235 270 240 270 250 270 255 270 265 270 270 270 280 270 285 270 295 270"/>
<text x="87" y="270" text-anchor="end" dominant-baseline="middle" font-size="6">argus</text>
<text x="298" y="270" text-anchor="start" dominant-baseline="middle" font-size="6">argus</text>
<path id="thread_jerome" fill="none" stroke="black" stroke_width="3" d="M 90 264 100 264 105 264 115 264 120 264 130 264 135 264 145 264 150 264 160 264 165 264 175 264 180 276 190 276 195 276 205 276 210 276 220 276 225 264 235 264 240 264 250 264 255 264 265 264 270 264 280 264 285 264 295 264"/>
<text x="87" y="264" text-anchor="end" dominant-baseline="middle" font-size="6">jerome</text>
<text x="298" y="264" text-anchor="start" dominant-baseline="middle" font-size="6">jerome</text>
<path id="thread_thane_the_elder" fill="none" stroke="black" stroke_width="3" d="M 90 240 100 240 105 240 115 240 120 240 130 240 135 240 145 240 150 240 160 240 165 240 175 240 180 240 190 240 195 240 205 240 210 240 220 240 225 240 235 240 240 246 250 246 255 162 265 162 270 168 280 168 285 186 295 186"/>
<text x="87" y="240" text-anchor="end" dominant-baseline="middle" font-size="6">thane_the_elder</text>
<text x="298" y="186" text-anchor="start" dominant-baseline="middle" font-size="6">thane_the_elder</text>
</svg>
